<svg width="36" height="30" viewBox="0 0 36 30" fill="none" xmlns="http://www.w3.org/2000/svg">
<path d="M29.0051 12.9545C28.5222 12.9545 28.1176 12.7909 27.7915 12.4636C27.4642 12.1375 27.3006 11.733 27.3006 11.25V5.79545L25.7239 7.32954C25.4114 7.64204 25.0279 7.80568 24.5733 7.82045C24.1188 7.83409 23.721 7.67045 23.3801 7.32954C23.0676 7.01704 22.9114 6.61932 22.9114 6.13636C22.9114 5.65341 23.0676 5.25568 23.3801 4.94318L27.812 0.511363C28.1529 0.170454 28.5506 0 29.0051 0C29.4597 0 29.8574 0.170454 30.1983 0.511363L34.6301 4.94318C34.971 5.28409 35.1415 5.68182 35.1415 6.13636C35.1415 6.59091 34.971 6.98864 34.6301 7.32954C34.2892 7.67045 33.8841 7.84091 33.4148 7.84091C32.9466 7.84091 32.5421 7.67045 32.2012 7.32954L30.7097 5.83807V11.25C30.7097 11.733 30.546 12.1375 30.2188 12.4636C29.8926 12.7909 29.4881 12.9545 29.0051 12.9545ZM1.73241 30C1.02218 30 0.510817 29.6875 0.198317 29.0625C-0.114183 28.4375 -0.0573643 27.8409 0.368772 27.2727L7.18695 18.196C7.52786 17.7415 7.98241 17.5142 8.55059 17.5142C9.11877 17.5142 9.57332 17.7415 9.91423 18.196L16.221 26.5909H29.0051L20.4824 15.2557L16.221 20.8807L14.0904 18.0682L19.1188 11.3778C19.4597 10.9233 19.9142 10.696 20.4824 10.696C21.0506 10.696 21.5051 10.9233 21.846 11.3778L33.7779 27.2727C34.204 27.8409 34.2608 28.4375 33.9483 29.0625C33.6358 29.6875 33.1245 30 32.4142 30H1.73241Z" fill="#FFC619"/>
</svg>
