<svg width="22" height="34" viewBox="0 0 22 34" fill="none" xmlns="http://www.w3.org/2000/svg">
<path d="M10.3337 5.33333C11.2541 5.33333 12.0003 4.58714 12.0003 3.66667C12.0003 2.74619 11.2541 2 10.3337 2C9.41318 2 8.66699 2.74619 8.66699 3.66667C8.66699 4.58714 9.41318 5.33333 10.3337 5.33333Z" stroke="#FFC619" stroke-width="3" stroke-linecap="round" stroke-linejoin="round"/>
<path d="M2 32L5.33333 25.3334M12 32V25.3334L7 20.3334L8.66667 10.3334L13.6667 17L18.6667 20.3334" stroke="#FFC619" stroke-width="3" stroke-linecap="round" stroke-linejoin="round"/>
<path d="M7.0005 20.3333L3.9555 18.3033C3.38316 17.9219 2.94282 17.3727 2.69486 16.7312C2.4469 16.0897 2.40346 15.3872 2.5705 14.72L3.03716 12.8583C3.21735 12.1374 3.63322 11.4975 4.21872 11.04C4.80423 10.5825 5.5258 10.3338 6.26883 10.3333H8.66716L15.3338 12L20.3338 8.66663M18.6672 17V32M17.0005 30.3333H20.3338" stroke="#FFC619" stroke-width="3" stroke-linecap="round" stroke-linejoin="round"/>
</svg>
