<svg width="26" height="30" viewBox="0 0 26 30" fill="none" xmlns="http://www.w3.org/2000/svg">
<path d="M2.96429 15.7143H7.14286C7.40476 15.7143 7.65476 15.7795 7.89286 15.91C8.13095 16.0414 8.30952 16.2381 8.42857 16.5L10 19.6429L14.4286 10.7857C14.6905 10.2381 15.119 9.96429 15.7143 9.96429C16.3095 9.96429 16.7381 10.2381 17 10.7857L19.4643 15.7143H22.75C22.3929 13.2857 21.2857 11.25 19.4286 9.60714C17.5714 7.96429 15.381 7.14286 12.8571 7.14286C10.3333 7.14286 8.14286 7.96429 6.28571 9.60714C4.42857 11.25 3.32143 13.2857 2.96429 15.7143ZM12.8571 27.1429C15.381 27.1429 17.5714 26.3214 19.4286 24.6786C21.2857 23.0357 22.3929 21 22.75 18.5714H18.5714C18.3095 18.5714 18.0595 18.5062 17.8214 18.3757C17.5833 18.2443 17.4048 18.0476 17.2857 17.7857L15.7143 14.6429L11.2857 23.5C11.0238 24.0476 10.5952 24.3214 10 24.3214C9.40476 24.3214 8.97619 24.0476 8.71429 23.5L6.25 18.5714H2.96429C3.32143 21 4.42857 23.0357 6.28571 24.6786C8.14286 26.3214 10.3333 27.1429 12.8571 27.1429ZM12.8571 30C11.0952 30 9.43429 29.661 7.87429 28.9829C6.31524 28.3038 4.95238 27.381 3.78571 26.2143C2.61905 25.0476 1.69619 23.6848 1.01714 22.1257C0.339047 20.5657 0 18.9048 0 17.1429H2.85714C2.85714 19.9048 3.83333 22.2619 5.78571 24.2143C7.7381 26.1667 10.0952 27.1429 12.8571 27.1429C15.619 27.1429 17.9762 26.1667 19.9286 24.2143C21.881 22.2619 22.8571 19.9048 22.8571 17.1429H25.7143C25.7143 18.9048 25.3752 20.5657 24.6971 22.1257C24.0181 23.6848 23.0952 25.0476 21.9286 26.2143C20.7619 27.381 19.399 28.3038 17.84 28.9829C16.28 29.661 14.619 30 12.8571 30ZM0 17.1429C0 15.381 0.339047 13.72 1.01714 12.16C1.69619 10.601 2.61905 9.2381 3.78571 8.07143C4.95238 6.90476 6.31524 5.98238 7.87429 5.30429C9.43429 4.62524 11.0952 4.28571 12.8571 4.28571C14.3333 4.28571 15.75 4.52381 17.1071 5C18.4643 5.47619 19.7381 6.16667 20.9286 7.07143L21.9286 6.07143C22.1905 5.80952 22.5238 5.67857 22.9286 5.67857C23.3333 5.67857 23.6667 5.80952 23.9286 6.07143C24.1905 6.33333 24.3214 6.66667 24.3214 7.07143C24.3214 7.47619 24.1905 7.80952 23.9286 8.07143L22.9286 9.07143C23.8333 10.2619 24.5238 11.5357 25 12.8929C25.4762 14.25 25.7143 15.6667 25.7143 17.1429H22.8571C22.8571 14.381 21.881 12.0238 19.9286 10.0714C17.9762 8.11905 15.619 7.14286 12.8571 7.14286C10.0952 7.14286 7.7381 8.11905 5.78571 10.0714C3.83333 12.0238 2.85714 14.381 2.85714 17.1429H0ZM10 2.85714C9.59524 2.85714 9.25619 2.72 8.98286 2.44571C8.70857 2.17238 8.57143 1.83333 8.57143 1.42857C8.57143 1.02381 8.70857 0.684286 8.98286 0.41C9.25619 0.136667 9.59524 0 10 0H15.7143C16.119 0 16.4586 0.136667 16.7329 0.41C17.0062 0.684286 17.1429 1.02381 17.1429 1.42857C17.1429 1.83333 17.0062 2.17238 16.7329 2.44571C16.4586 2.72 16.119 2.85714 15.7143 2.85714H10ZM12.8571 27.1429C10.0952 27.1429 7.7381 26.1667 5.78571 24.2143C3.83333 22.2619 2.85714 19.9048 2.85714 17.1429C2.85714 14.381 3.83333 12.0238 5.78571 10.0714C7.7381 8.11905 10.0952 7.14286 12.8571 7.14286C15.619 7.14286 17.9762 8.11905 19.9286 10.0714C21.881 12.0238 22.8571 14.381 22.8571 17.1429C22.8571 19.9048 21.881 22.2619 19.9286 24.2143C17.9762 26.1667 15.619 27.1429 12.8571 27.1429Z" fill="#FFC619"/>
</svg>
