<svg width="28" height="32" viewBox="0 0 28 32" fill="none" xmlns="http://www.w3.org/2000/svg">
<path d="M5.28571 12.595V2.07143C5.28571 1.78727 5.3986 1.51475 5.59953 1.31381C5.80046 1.11288 6.07298 1 6.35714 1C6.6413 1 6.91383 1.11288 7.11476 1.31381C7.31569 1.51475 7.42857 1.78727 7.42857 2.07143V12.595C8.05552 12.3733 8.5983 11.9627 8.98208 11.4196C9.36587 10.8766 9.57178 10.2278 9.57143 9.56286V2.07143C9.57143 1.78727 9.68431 1.51475 9.88524 1.31381C10.0862 1.11288 10.3587 1 10.6429 1C10.927 1 11.1995 1.11288 11.4005 1.31381C11.6014 1.51475 11.7143 1.78727 11.7143 2.07143V9.56286C11.7145 10.7978 11.2881 11.995 10.5071 12.9517C9.72614 13.9084 8.6386 14.5659 7.42857 14.8129V29.9286C7.42857 30.2127 7.31569 30.4853 7.11476 30.6862C6.91383 30.8871 6.6413 31 6.35714 31C6.07298 31 5.80046 30.8871 5.59953 30.6862C5.3986 30.4853 5.28571 30.2127 5.28571 29.9286V14.8129C4.07568 14.5659 2.98815 13.9084 2.20717 12.9517C1.4262 11.995 0.999748 10.7978 1 9.56286V2.07143C1 1.78727 1.11288 1.51475 1.31381 1.31381C1.51475 1.11288 1.78727 1 2.07143 1C2.35559 1 2.62811 1.11288 2.82904 1.31381C3.02997 1.51475 3.14286 1.78727 3.14286 2.07143V9.56286C3.14251 10.2278 3.34842 10.8766 3.7322 11.4196C4.11599 11.9627 4.65876 12.3733 5.28571 12.595ZM19.2143 18.025C16.1736 17.3436 13.8571 13.8186 13.8571 9.57143C13.8571 4.83571 16.735 1 20.2857 1C23.8364 1 26.7143 4.83571 26.7143 9.57143C26.7143 13.8186 24.3979 17.3436 21.3571 18.025V29.9286C21.3571 30.2127 21.2443 30.4853 21.0433 30.6862C20.8424 30.8871 20.5699 31 20.2857 31C20.0016 31 19.729 30.8871 19.5281 30.6862C19.3272 30.4853 19.2143 30.2127 19.2143 29.9286V18.025ZM20.2857 16C22.4971 16 24.5714 13.2357 24.5714 9.57143C24.5714 5.90714 22.4971 3.14286 20.2857 3.14286C18.0743 3.14286 16 5.90714 16 9.57143C16 13.2357 18.0743 16 20.2857 16Z" fill="#FFC619" stroke="#FFC619"/>
</svg>
