<svg width="772" height="200" viewBox="0 0 772 200" fill="none" xmlns="http://www.w3.org/2000/svg">
<path d="M164.819 109.518C169.325 114.462 171.595 121.254 171.595 129.878V167.921H151.754V132.568C151.754 128.208 150.62 124.82 148.366 122.421C146.113 120.006 143.082 118.806 139.257 118.806C135.447 118.806 132.416 120.022 130.147 122.421C127.894 124.836 126.759 128.224 126.759 132.568V167.937H106.822V81.5732H126.775V111.561C128.802 108.676 131.557 106.39 135.058 104.672C138.56 102.97 142.482 102.111 146.843 102.111C154.315 102.111 160.313 104.575 164.819 109.518Z" fill="white"/>
<path d="M184.028 92.9525C181.807 90.8939 180.705 88.349 180.705 85.3017C180.705 82.1894 181.807 79.5959 184.028 77.5373C186.248 75.4787 189.101 74.4413 192.603 74.4413C196.023 74.4413 198.843 75.4787 201.064 77.5373C203.285 79.5959 204.387 82.1894 204.387 85.3017C204.387 88.3328 203.285 90.8939 201.064 92.9525C198.843 95.0111 196.023 96.0485 192.603 96.0485C189.101 96.0485 186.232 95.0111 184.028 92.9525ZM202.523 102.808V167.938H182.569V102.808H202.523Z" fill="white"/>
<path d="M253.874 167.937L234.033 140.624V167.937H214.079V81.5732H234.033V129.31L253.76 102.824H278.382L251.313 135.502L278.626 167.954H253.874V167.937Z" fill="white"/>
<path d="M284.737 92.9525C282.516 90.8939 281.414 88.349 281.414 85.3017C281.414 82.1894 282.516 79.5959 284.737 77.5373C286.958 75.4787 289.811 74.4413 293.312 74.4413C296.732 74.4413 299.552 75.4787 301.773 77.5373C303.994 79.5959 305.096 82.1894 305.096 85.3017C305.096 88.3328 303.994 90.8939 301.773 92.9525C299.552 95.0111 296.732 96.0485 293.312 96.0485C289.811 96.0485 286.958 95.0111 284.737 92.9525ZM303.232 102.808V167.938H283.278V102.808H303.232Z" fill="white"/>
<path d="M372.738 109.518C377.293 114.462 379.562 121.254 379.562 129.877V167.921H359.722V132.568C359.722 128.208 358.587 124.82 356.334 122.421C354.081 120.006 351.05 118.806 347.225 118.806C343.415 118.806 340.384 120.022 338.115 122.421C335.862 124.836 334.727 128.224 334.727 132.568V167.937H314.789V102.807H334.743V111.447C336.769 108.578 339.493 106.293 342.913 104.623C346.333 102.953 350.191 102.11 354.47 102.11C362.089 102.11 368.183 104.574 372.738 109.518Z" fill="white"/>
<path d="M427.348 104.672C430.817 106.536 433.475 108.983 435.339 112.031V102.808H455.293V167.808C455.293 173.805 454.11 179.219 451.727 184.082C449.361 188.945 445.73 192.819 440.867 195.688C436.004 198.573 429.958 200 422.712 200C413.068 200 405.238 197.73 399.257 193.176C393.26 188.621 389.839 182.461 388.98 174.681H408.707C409.323 177.177 410.815 179.138 413.149 180.581C415.483 182.023 418.368 182.737 421.788 182.737C425.906 182.737 429.196 181.553 431.644 179.171C434.091 176.804 435.323 172.995 435.323 167.791V158.568C433.378 161.599 430.687 164.08 427.267 165.976C423.847 167.889 419.843 168.829 415.24 168.829C409.874 168.829 405.012 167.451 400.651 164.679C396.291 161.924 392.854 157.985 390.326 152.895C387.797 147.805 386.533 141.905 386.533 135.21C386.533 128.516 387.797 122.648 390.326 117.591C392.854 112.533 396.291 108.643 400.651 105.92C405.012 103.197 409.874 101.835 415.24 101.835C419.859 101.884 423.896 102.808 427.348 104.672ZM431.206 123.588C428.45 120.703 425.079 119.276 421.108 119.276C417.136 119.276 413.781 120.703 411.009 123.54C408.253 126.376 406.859 130.299 406.859 135.275C406.859 140.252 408.237 144.207 411.009 147.124C413.765 150.042 417.136 151.501 421.108 151.501C425.079 151.501 428.434 150.058 431.206 147.189C433.962 144.304 435.356 140.381 435.356 135.405C435.356 130.396 433.962 126.457 431.206 123.588Z" fill="white"/>
<path d="M494.876 104.672C498.377 102.808 502.381 101.868 506.904 101.868C512.269 101.868 517.132 103.229 521.492 105.952C525.853 108.676 529.289 112.566 531.818 117.623C534.346 122.681 535.611 128.548 535.611 135.243C535.611 141.937 534.346 147.821 531.818 152.927C529.289 158.017 525.853 161.956 521.492 164.712C517.132 167.484 512.269 168.861 506.904 168.861C502.316 168.861 498.313 167.937 494.876 166.122C491.456 164.29 488.765 161.859 486.82 158.828V167.937H466.866V81.5732H486.82V112.031C488.684 109 491.375 106.552 494.876 104.672ZM511.151 123.523C508.395 120.687 504.991 119.26 500.939 119.26C496.967 119.26 493.596 120.703 490.84 123.572C488.084 126.457 486.69 130.38 486.69 135.356C486.69 140.333 488.068 144.272 490.84 147.141C493.596 150.026 496.967 151.452 500.939 151.452C504.91 151.452 508.298 149.993 511.086 147.076C513.89 144.158 515.284 140.203 515.284 135.227C515.3 130.283 513.906 126.36 511.151 123.523Z" fill="#FFC619"/>
<path d="M604.226 140.154H559.066C559.374 144.207 560.687 147.303 562.973 149.426C565.274 151.566 568.095 152.636 571.434 152.636C576.41 152.636 579.879 150.528 581.824 146.33H603.059C601.973 150.61 600.011 154.467 597.158 157.888C594.322 161.308 590.756 163.999 586.476 165.944C582.197 167.889 577.415 168.861 572.115 168.861C565.728 168.861 560.055 167.5 555.079 164.777C550.102 162.053 546.212 158.163 543.408 153.106C540.603 148.048 539.209 142.132 539.209 135.373C539.209 128.597 540.587 122.697 543.359 117.639C546.115 112.582 549.989 108.692 554.965 105.969C559.941 103.245 565.663 101.884 572.115 101.884C578.42 101.884 584.013 103.213 588.924 105.855C593.819 108.497 597.661 112.274 600.417 117.169C603.172 122.065 604.566 127.787 604.566 134.319C604.566 136.183 604.453 138.128 604.226 140.154ZM584.158 129.067C584.158 125.647 582.991 122.924 580.657 120.898C578.323 118.871 575.405 117.866 571.904 117.866C568.565 117.866 565.744 118.839 563.443 120.784C561.141 122.729 559.731 125.485 559.18 129.067H584.158Z" fill="#FFC619"/>
<path d="M673.197 140.154H628.038C628.346 144.207 629.659 147.303 631.944 149.426C634.246 151.566 637.066 152.636 640.406 152.636C645.382 152.636 648.851 150.528 650.796 146.33H672.03C670.944 150.61 668.983 154.467 666.13 157.888C663.293 161.308 659.727 163.999 655.448 165.944C651.169 167.889 646.387 168.861 641.086 168.861C634.7 168.861 629.027 167.5 624.05 164.777C619.074 162.053 615.184 158.163 612.379 153.106C609.575 148.048 608.181 142.132 608.181 135.373C608.181 128.597 609.559 122.697 612.331 117.639C615.086 112.582 618.96 108.692 623.937 105.969C628.913 103.245 634.635 101.884 641.086 101.884C647.392 101.884 652.984 103.213 657.896 105.855C662.791 108.497 666.633 112.274 669.388 117.169C672.144 122.065 673.538 127.787 673.538 134.319C673.554 136.183 673.424 138.128 673.197 140.154ZM653.13 129.067C653.13 125.647 651.963 122.924 649.629 120.898C647.295 118.871 644.377 117.866 640.876 117.866C637.537 117.866 634.716 118.839 632.414 120.784C630.113 122.729 628.702 125.485 628.151 129.067H653.13Z" fill="#FFC619"/>
<path d="M692.454 165.944C688.013 163.999 684.512 161.34 681.95 157.952C679.389 154.565 677.947 150.772 677.639 146.573H697.366C697.593 148.826 698.646 150.658 700.51 152.052C702.374 153.446 704.676 154.159 707.399 154.159C709.896 154.159 711.808 153.673 713.17 152.7C714.531 151.728 715.212 150.464 715.212 148.907C715.212 147.043 714.24 145.666 712.295 144.758C710.349 143.866 707.205 142.878 702.844 141.775C698.176 140.689 694.286 139.538 691.174 138.339C688.061 137.139 685.371 135.227 683.117 132.617C680.864 130.007 679.73 126.49 679.73 122.048C679.73 118.32 680.767 114.916 682.826 111.836C684.884 108.757 687.916 106.341 691.935 104.542C695.939 102.759 700.705 101.851 706.232 101.851C714.402 101.851 720.837 103.878 725.554 107.914C730.255 111.966 732.962 117.331 733.659 124.026H715.212C714.904 121.773 713.916 119.974 712.23 118.661C710.56 117.331 708.356 116.683 705.632 116.683C703.298 116.683 701.515 117.137 700.267 118.028C699.019 118.92 698.403 120.152 698.403 121.708C698.403 123.572 699.392 124.982 701.386 125.906C703.363 126.846 706.459 127.77 710.657 128.71C715.488 129.959 719.411 131.174 722.442 132.39C725.473 133.606 728.147 135.535 730.433 138.225C732.735 140.916 733.918 144.515 733.999 149.021C733.999 152.83 732.929 156.234 730.79 159.233C728.65 162.232 725.57 164.582 721.566 166.3C717.563 168.002 712.911 168.861 707.626 168.861C701.953 168.861 696.896 167.905 692.454 165.944Z" fill="#FFC619"/>
<path d="M751.59 165.781C749.369 163.723 748.267 161.178 748.267 158.13C748.267 155.018 749.369 152.409 751.59 150.317C753.811 148.21 756.664 147.173 760.165 147.173C763.585 147.173 766.406 148.226 768.626 150.317C770.847 152.425 771.949 155.018 771.949 158.13C771.949 161.162 770.847 163.707 768.626 165.781C766.406 167.84 763.585 168.877 760.165 168.877C756.664 168.861 753.811 167.84 751.59 165.781Z" fill="#FFC619"/>
<path d="M37.7702 56.3895C41.4063 48.1791 45.9806 40.4249 51.0111 32.9182C56.1068 25.4507 61.828 18.322 68.7612 12.0013C72.28 8.89955 76.0724 5.92817 80.5555 3.63447C82.7971 2.48762 85.1951 1.48413 87.8146 0.806443C90.4211 0.115727 93.2882 -0.157953 96.1814 0.0896619C99.0746 0.337277 102.02 1.17135 104.587 2.53975C107.168 3.89512 109.396 5.68055 111.286 7.60934C115.013 11.4018 117.789 16.0022 119.522 21.0457C121.23 26.0893 121.699 31.5107 121.047 36.7497C120.382 42.0018 118.48 47.0323 115.691 51.4763C112.876 55.9073 109.005 59.6607 104.574 62.4105C102.359 63.7919 99.9868 64.8736 97.5498 65.7077C96.3508 66.1638 95.0736 66.4636 93.8746 66.7503C92.6887 67.0239 91.5028 67.2455 90.3038 67.441C80.7901 68.9136 71.4459 68.1578 62.5187 66.4245C61.398 66.2159 60.2902 65.9423 59.1824 65.7077C58.6481 65.5904 58.0356 65.434 57.4622 65.2906L55.8983 64.8736C53.8001 64.3262 51.6758 63.9092 49.5385 63.5182C47.4012 63.1403 45.2508 62.8666 43.1135 62.9187C42.0449 62.9318 40.9762 63.01 39.9858 63.3228C39.0083 63.6225 38.0439 64.1959 37.6008 65.2646C37.666 64.1047 38.5652 63.0751 39.5687 62.4626C40.5852 61.824 41.706 61.42 42.8398 61.0942C45.1075 60.5208 47.4272 60.2862 49.7209 60.1559C52.0277 60.0256 54.3083 60.1168 56.602 60.2471L58.3223 60.3774C58.8436 60.4035 59.3258 60.4426 59.8862 60.4556L63.1573 60.5469C71.8499 60.7554 80.5034 60.2862 88.4141 58.2271C89.4045 57.9664 90.3689 57.6797 91.3333 57.367C91.8285 57.2236 92.2326 57.0281 92.6887 56.8717C93.1318 56.7153 93.5749 56.5459 93.9919 56.3504C95.7122 55.6076 97.3413 54.7084 98.8139 53.6136C101.785 51.4633 104.327 48.7395 106.112 45.5727C107.963 42.4449 109.083 38.9131 109.513 35.3422C109.931 31.7583 109.5 28.1353 108.445 24.7339C107.337 21.3585 105.421 18.1656 103.036 15.52C100.651 12.9526 98.045 11.3757 95.0345 10.9587C92.024 10.5025 88.4532 11.2454 84.9084 12.7702C81.3636 14.308 77.8187 16.4583 74.4564 18.9605C67.6665 23.9519 61.3849 30.0511 55.3249 36.3979C49.2387 42.7577 43.4915 49.4954 37.7702 56.3895Z" fill="#FFC619"/>
<path d="M40.9623 92.6503L74.4025 102.603C74.597 98.8423 74.1107 94.9845 72.8302 91.2077C67.3838 75.1927 49.991 66.6017 33.976 72.048C17.9448 77.4782 9.36999 94.8872 14.8164 110.902C16.2266 115.068 18.4635 118.715 21.2678 121.763L40.9623 92.6503Z" fill="#FFC619"/>
<path d="M74.3701 103.365C74.3701 103.267 74.3863 103.17 74.3863 103.089L74.3701 103.365Z" fill="#FFC619"/>
<path d="M40.9628 92.6505C40.9628 92.6505 72.085 103.333 56.5888 122.298C56.5888 122.298 45.0314 138.523 58.1935 147.147C71.3556 155.77 70.5776 169.338 70.5776 169.338L70.1723 176.34L19.8743 120.174L40.9628 92.6505Z" fill="white"/>
<path d="M0.114509 52.743C0.114509 52.743 3.22673 70.152 12.4013 66.6183C21.5759 63.0684 29.9238 48.6096 29.2754 44.152C29.2754 44.152 29.3564 26.8564 12.1906 31.1033C12.1906 31.1033 -1.37676 36.3876 0.114509 52.743ZM16.3078 34.9936C25.4013 39.9051 17.7991 48.9824 17.7991 48.9824L14.5247 52.5161C4.47486 61.9662 6.42 44.5572 6.42 44.5572C9.46738 33.016 16.3078 34.9936 16.3078 34.9936Z" fill="white"/>
<path d="M15.2056 30.1465C15.4325 27.4233 16.1943 24.8136 17.248 22.3173C18.3178 19.8211 19.7118 17.422 21.5597 15.3148C23.3914 13.2238 25.7417 11.3597 28.5622 10.5006C29.9562 10.0629 31.4475 9.91705 32.8739 10.0954C34.3003 10.3061 35.6295 10.7924 36.7642 11.538C34.041 11.3273 31.5934 11.7163 29.5023 12.851C27.3951 13.937 25.6445 15.6066 24.0073 17.4545C20.733 21.1827 18.1557 25.6403 15.2056 30.1465Z" fill="white"/>
<path d="M12.4985 31.5569C11.7204 28.9472 11.4935 26.224 11.5746 23.517C11.6718 20.81 12.0933 18.0706 13.0496 15.4285C13.9898 12.8187 15.5135 10.2252 17.8314 8.40977C18.9661 7.50203 20.3115 6.82124 21.7055 6.48084C23.1157 6.17286 24.5259 6.14044 25.8551 6.43221C23.2454 7.22647 21.1057 8.4746 19.5658 10.2739C17.9935 12.0407 16.9561 14.2452 16.1132 16.5469C14.4112 21.1991 13.617 26.2888 12.4985 31.5569Z" fill="white"/>
</svg>
